<?xml version="1.0" standalone="no"?>
<!DOCTYPE svg PUBLIC "-//W3C//DTD SVG 20010904//EN"
 "http://www.w3.org/TR/2001/REC-SVG-20010904/DTD/svg10.dtd">
<svg version="1.0" xmlns="http://www.w3.org/2000/svg"
 width="500.000000pt" height="500.000000pt" viewBox="0 0 500.000000 500.000000"
 preserveAspectRatio="xMidYMid meet">
<metadata>
Created by potrace 1.16, written by Peter Selinger 2001-2019
</metadata>
<g transform="translate(0.000000,500.000000) scale(0.100000,-0.100000)"
fill="#000000" stroke="none">
<path d="M1740 3966 l-745 -232 -12 -99 c-17 -147 -16 -621 2 -788 24 -224 56
-389 116 -596 l30 -103 -25 -37 c-43 -62 -46 -84 -48 -324 -3 -267 2 -288 85
-364 65 -60 118 -73 300 -73 l150 0 86 -78 c172 -157 326 -263 504 -347 131
-62 277 -115 317 -115 78 0 386 136 538 237 105 70 211 154 300 238 l69 65
141 0 c78 0 164 5 192 11 64 14 125 60 165 124 l30 48 0 252 0 252 -33 53
c-18 30 -31 61 -29 69 105 336 153 623 164 976 5 188 -8 480 -25 565 l-8 35
-744 232 c-410 127 -752 232 -760 231 -8 0 -350 -104 -760 -232z m1473 -76
c391 -121 712 -222 713 -223 13 -13 26 -320 21 -512 -8 -321 -53 -629 -125
-860 -28 -89 -28 -90 -58 -85 -49 8 -2507 6 -2531 -3 -20 -7 -23 -2 -48 77
-103 339 -151 781 -127 1173 8 141 16 200 25 207 12 7 1389 442 1411 445 5 0
328 -98 719 -219z m-1623 -1925 l0 -55 -75 0 c-68 0 -75 -2 -75 -20 0 -18 7
-20 55 -20 l55 0 0 -54 0 -55 -52 -3 c-46 -3 -53 -6 -56 -25 -3 -22 0 -23 72
-23 l76 0 0 -55 0 -55 -130 0 -130 0 0 210 0 210 130 0 130 0 0 -55z m302 38
c15 -14 18 -32 18 -134 0 -142 -4 -149 -91 -149 l-59 0 0 -60 0 -60 -55 0 -55
0 0 210 0 210 112 0 c90 0 115 -3 130 -17z m188 -193 l0 -210 -55 0 -55 0 0
210 0 210 55 0 55 0 0 -210z m320 155 l0 -55 -40 0 -40 0 0 -155 0 -155 -55 0
-55 0 0 155 0 155 -40 0 -40 0 0 55 0 55 135 0 135 0 0 -55z m286 47 c22 -14
34 -52 34 -106 l0 -56 -60 0 -60 0 0 30 c0 24 -4 30 -20 30 -20 0 -21 -5 -18
-97 3 -84 6 -98 21 -101 13 -3 17 3 17 27 l0 31 61 0 61 0 -4 -66 c-6 -93 -21
-104 -139 -104 -131 0 -129 -3 -129 210 0 214 -3 210 133 210 50 0 97 -4 103
-8z m194 -67 c0 -68 2 -75 20 -75 18 0 20 7 20 75 l0 75 55 0 55 0 0 -210 0
-210 -55 0 -55 0 0 81 c0 71 -2 80 -17 77 -15 -3 -18 -16 -21 -81 l-3 -77 -54
0 -55 0 0 210 0 210 55 0 55 0 0 -75z m452 58 c16 -14 18 -35 18 -210 l0 -193
-55 0 -55 0 0 40 c0 33 -3 40 -20 40 -17 0 -20 -7 -20 -40 l0 -40 -55 0 -55 0
0 192 c0 238 -6 228 128 228 75 0 99 -4 114 -17z m338 -37 l0 -55 -37 -3 -38
-3 -3 -152 -3 -153 -54 0 -55 0 0 155 0 155 -35 0 -35 0 0 55 0 55 130 0 130
0 0 -54z"/>
<path d="M2335 3812 c-170 -44 -319 -148 -411 -287 -23 -34 -44 -55 -56 -55
-28 0 -89 -28 -117 -53 -48 -44 -61 -91 -61 -227 0 -100 4 -133 19 -165 36
-79 101 -115 207 -115 64 0 66 1 60 23 -29 102 -36 142 -36 212 0 154 54 281
164 390 224 221 571 222 792 1 115 -114 167 -241 166 -401 -1 -215 -120 -401
-316 -496 -44 -22 -85 -39 -91 -39 -7 0 -20 9 -31 21 -51 56 -149 69 -209 28
-99 -68 -99 -200 -1 -273 21 -16 42 -21 86 -21 67 1 99 18 138 75 17 25 37 38
75 50 181 56 343 199 423 374 22 48 33 60 74 81 34 17 57 38 75 68 24 41 25
52 25 182 0 119 -3 145 -20 181 -25 50 -80 91 -136 100 -34 5 -44 13 -69 52
-44 69 -159 178 -234 220 -112 62 -190 84 -326 88 -93 3 -136 0 -190 -14z"/>
</g>
</svg>
